<?xml version="1.0" encoding="UTF-8"?>
<svg width="577px" height="194px" viewBox="0 0 577 194" version="1.1" xmlns="http://www.w3.org/2000/svg" xmlns:xlink="http://www.w3.org/1999/xlink">
    <title>apiapi.rest-rendered</title>
    <g id="apiapi.rest-rendered" stroke="none" stroke-width="1" fill="none" fill-rule="evenodd">
        <path d="M26.3085938,82.4648438 C30.0195312,82.4648438 33.6914062,81.8984375 37.3242188,80.765625 C40.9570312,79.6328125 44.3945312,77.9921875 47.6367188,75.84375 C48.2617188,77.796875 49.0527344,79.1445312 50.0097656,79.8867188 C50.9667969,80.6289062 52.421875,81 54.375,81 L54.375,81 L59.8828125,81 C62.5390625,81 64.4433594,80.5019531 65.5957031,79.5058594 C66.7480469,78.5097656 67.3242188,76.8789062 67.3242188,74.6132812 C67.3242188,72.5429688 66.7675781,70.9511719 65.6542969,69.8378906 C64.5410156,68.7246094 62.9296875,68.1679688 60.8203125,68.1679688 L60.8203125,68.1679688 L59.8828125,68.1679688 L59.8828125,46.4296875 C59.8828125,38.7734375 58.0859375,33.34375 54.4921875,30.140625 C50.8984375,26.9375 44.9414062,25.3359375 36.6210938,25.3359375 C28.6523438,25.3359375 22.3535156,26.2636719 17.7246094,28.1191406 C13.0957031,29.9746094 10.78125,32.484375 10.78125,35.6484375 C10.78125,37.40625 11.3476562,38.8222656 12.4804688,39.8964844 C13.6132812,40.9707031 15.0976562,41.5078125 16.9335938,41.5078125 C18.8085938,41.5078125 21.7480469,40.5507812 25.7519531,38.6367188 C29.7558594,36.7226562 33.046875,35.765625 35.625,35.765625 C38.9453125,35.765625 41.4550781,36.6835938 43.1542969,38.5195312 C44.8535156,40.3554688 45.703125,43.03125 45.703125,46.546875 L45.703125,46.546875 L45.703125,47.6601562 C43.0859375,47.2304688 40.7226562,46.9179688 38.6132812,46.7226562 C36.5039062,46.5273438 34.5117188,46.4296875 32.6367188,46.4296875 C24.2382812,46.4296875 17.7148438,48.0507812 13.0664062,51.2929688 C8.41796875,54.5351562 6.09375,59.0859375 6.09375,64.9453125 C6.09375,70.375 7.890625,74.6523438 11.484375,77.7773438 C15.078125,80.9023438 20.0195312,82.4648438 26.3085938,82.4648438 Z M31.0546875,70.6875 C28.125,70.6875 25.8789062,70.0917969 24.3164062,68.9003906 C22.7539062,67.7089844 21.9726562,65.9804688 21.9726562,63.7148438 C21.9726562,61.1757812 23.1933594,59.1835938 25.6347656,57.7382812 C28.0761719,56.2929688 31.4453125,55.5703125 35.7421875,55.5703125 C37.1484375,55.5703125 38.671875,55.6777344 40.3125,55.8925781 C41.953125,56.1074219 43.75,56.4296875 45.703125,56.859375 L45.703125,56.859375 L45.703125,65.8828125 C43.3984375,67.5234375 41.0546875,68.734375 38.671875,69.515625 C36.2890625,70.296875 33.75,70.6875 31.0546875,70.6875 Z M104.296875,104.261719 C106.992188,104.261719 108.90625,103.773438 110.039062,102.796875 C111.171875,101.820312 111.738281,100.199219 111.738281,97.9335938 C111.738281,95.6289062 111.162109,93.96875 110.009766,92.953125 C108.857422,91.9375 106.953125,91.4296875 104.296875,91.4296875 L104.296875,91.4296875 L96.8554688,91.4296875 L96.8554688,75.4921875 C98.8867188,77.171875 101.279297,78.4511719 104.033203,79.3300781 C106.787109,80.2089844 109.746094,80.6484375 112.910156,80.6484375 C120.683594,80.6484375 127.128906,77.9824219 132.246094,72.6503906 C137.363281,67.3183594 139.921875,60.5898438 139.921875,52.4648438 C139.921875,44.6914062 137.285156,38.2460938 132.011719,33.1289062 C126.738281,28.0117188 120.097656,25.453125 112.089844,25.453125 C108.535156,25.453125 105.341797,26.1269531 102.509766,27.4746094 C99.6777344,28.8222656 97.265625,30.8242188 95.2734375,33.4804688 L95.2734375,33.4804688 L95.2734375,29.2617188 C95.2734375,28.4804688 95,27.8847656 94.453125,27.4746094 C93.90625,27.0644531 93.0664062,26.859375 91.9335938,26.859375 L91.9335938,26.859375 L82.9101562,26.859375 C80.2148438,26.859375 78.3203125,27.3476562 77.2265625,28.3242188 C76.1328125,29.3007812 75.5859375,30.9414062 75.5859375,33.2460938 C75.5859375,35.3554688 76.1328125,36.9570312 77.2265625,38.0507812 C78.3203125,39.1445312 79.9023438,39.6914062 81.9726562,39.6914062 L81.9726562,39.6914062 L82.9101562,39.6914062 L82.9101562,91.4296875 L79.453125,91.4296875 C76.796875,91.4296875 74.9121094,91.9375 73.7988281,92.953125 C72.6855469,93.96875 72.1289062,95.6289062 72.1289062,97.9335938 C72.1289062,100.238281 72.6757812,101.869141 73.7695312,102.826172 C74.8632812,103.783203 76.7578125,104.261719 79.453125,104.261719 L79.453125,104.261719 L104.296875,104.261719 Z M110.390625,68.4023438 C106.523438,68.4023438 103.339844,66.9765625 100.839844,64.125 C98.3398438,61.2734375 97.0898438,57.6210938 97.0898438,53.1679688 C97.0898438,48.7148438 98.3398438,45.0625 100.839844,42.2109375 C103.339844,39.359375 106.523438,37.9335938 110.390625,37.9335938 C114.296875,37.9335938 117.5,39.359375 120,42.2109375 C122.5,45.0625 123.75,48.7148438 123.75,53.1679688 C123.75,57.5820312 122.490234,61.2246094 119.970703,64.0957031 C117.451172,66.9667969 114.257812,68.4023438 110.390625,68.4023438 Z M179.648438,18.7148438 C182.773438,18.7148438 184.755859,18.2363281 185.595703,17.2792969 C186.435547,16.3222656 186.855469,13.8515625 186.855469,9.8671875 C186.855469,5.7265625 186.386719,3.109375 185.449219,2.015625 C184.511719,0.921875 182.617188,0.375 179.765625,0.375 C176.679688,0.375 174.6875,1.05859375 173.789062,2.42578125 C172.890625,3.79296875 172.441406,6.9765625 172.441406,11.9765625 C172.441406,14.671875 172.880859,16.46875 173.759766,17.3671875 C174.638672,18.265625 176.601562,18.7148438 179.648438,18.7148438 Z M200.800781,81 C203.457031,81 205.361328,80.4921875 206.513672,79.4765625 C207.666016,78.4609375 208.242188,76.8007812 208.242188,74.4960938 C208.242188,72.2304688 207.675781,70.609375 206.542969,69.6328125 C205.410156,68.65625 203.496094,68.1679688 200.800781,68.1679688 L200.800781,68.1679688 L188.203125,68.1679688 L188.203125,29.3789062 C188.203125,28.5976562 187.910156,27.9824219 187.324219,27.5332031 C186.738281,27.0839844 185.898438,26.859375 184.804688,26.859375 L184.804688,26.859375 L167.167969,26.859375 C164.472656,26.859375 162.578125,27.3476562 161.484375,28.3242188 C160.390625,29.3007812 159.84375,30.9414062 159.84375,33.2460938 C159.84375,35.5507812 160.410156,37.2011719 161.542969,38.1972656 C162.675781,39.1933594 164.550781,39.6914062 167.167969,39.6914062 L167.167969,39.6914062 L173.789062,39.6914062 L173.789062,68.1679688 L161.191406,68.1679688 C158.457031,68.1679688 156.533203,68.65625 155.419922,69.6328125 C154.306641,70.609375 153.75,72.2304688 153.75,74.4960938 C153.75,76.8007812 154.326172,78.4609375 155.478516,79.4765625 C156.630859,80.4921875 158.535156,81 161.191406,81 L161.191406,81 L200.800781,81 Z M26.3085938,172.464844 C30.0195312,172.464844 33.6914062,171.898438 37.3242188,170.765625 C40.9570312,169.632812 44.3945312,167.992188 47.6367188,165.84375 C48.2617188,167.796875 49.0527344,169.144531 50.0097656,169.886719 C50.9667969,170.628906 52.421875,171 54.375,171 L54.375,171 L59.8828125,171 C62.5390625,171 64.4433594,170.501953 65.5957031,169.505859 C66.7480469,168.509766 67.3242188,166.878906 67.3242188,164.613281 C67.3242188,162.542969 66.7675781,160.951172 65.6542969,159.837891 C64.5410156,158.724609 62.9296875,158.167969 60.8203125,158.167969 L60.8203125,158.167969 L59.8828125,158.167969 L59.8828125,136.429688 C59.8828125,128.773438 58.0859375,123.34375 54.4921875,120.140625 C50.8984375,116.9375 44.9414062,115.335938 36.6210938,115.335938 C28.6523438,115.335938 22.3535156,116.263672 17.7246094,118.119141 C13.0957031,119.974609 10.78125,122.484375 10.78125,125.648438 C10.78125,127.40625 11.3476562,128.822266 12.4804688,129.896484 C13.6132812,130.970703 15.0976562,131.507812 16.9335938,131.507812 C18.8085938,131.507812 21.7480469,130.550781 25.7519531,128.636719 C29.7558594,126.722656 33.046875,125.765625 35.625,125.765625 C38.9453125,125.765625 41.4550781,126.683594 43.1542969,128.519531 C44.8535156,130.355469 45.703125,133.03125 45.703125,136.546875 L45.703125,136.546875 L45.703125,137.660156 C43.0859375,137.230469 40.7226562,136.917969 38.6132812,136.722656 C36.5039062,136.527344 34.5117188,136.429688 32.6367188,136.429688 C24.2382812,136.429688 17.7148438,138.050781 13.0664062,141.292969 C8.41796875,144.535156 6.09375,149.085938 6.09375,154.945312 C6.09375,160.375 7.890625,164.652344 11.484375,167.777344 C15.078125,170.902344 20.0195312,172.464844 26.3085938,172.464844 Z M31.0546875,160.6875 C28.125,160.6875 25.8789062,160.091797 24.3164062,158.900391 C22.7539062,157.708984 21.9726562,155.980469 21.9726562,153.714844 C21.9726562,151.175781 23.1933594,149.183594 25.6347656,147.738281 C28.0761719,146.292969 31.4453125,145.570312 35.7421875,145.570312 C37.1484375,145.570312 38.671875,145.677734 40.3125,145.892578 C41.953125,146.107422 43.75,146.429688 45.703125,146.859375 L45.703125,146.859375 L45.703125,155.882812 C43.3984375,157.523438 41.0546875,158.734375 38.671875,159.515625 C36.2890625,160.296875 33.75,160.6875 31.0546875,160.6875 Z M104.296875,194.261719 C106.992188,194.261719 108.90625,193.773438 110.039062,192.796875 C111.171875,191.820312 111.738281,190.199219 111.738281,187.933594 C111.738281,185.628906 111.162109,183.96875 110.009766,182.953125 C108.857422,181.9375 106.953125,181.429688 104.296875,181.429688 L104.296875,181.429688 L96.8554688,181.429688 L96.8554688,165.492188 C98.8867188,167.171875 101.279297,168.451172 104.033203,169.330078 C106.787109,170.208984 109.746094,170.648438 112.910156,170.648438 C120.683594,170.648438 127.128906,167.982422 132.246094,162.650391 C137.363281,157.318359 139.921875,150.589844 139.921875,142.464844 C139.921875,134.691406 137.285156,128.246094 132.011719,123.128906 C126.738281,118.011719 120.097656,115.453125 112.089844,115.453125 C108.535156,115.453125 105.341797,116.126953 102.509766,117.474609 C99.6777344,118.822266 97.265625,120.824219 95.2734375,123.480469 L95.2734375,123.480469 L95.2734375,119.261719 C95.2734375,118.480469 95,117.884766 94.453125,117.474609 C93.90625,117.064453 93.0664062,116.859375 91.9335938,116.859375 L91.9335938,116.859375 L82.9101562,116.859375 C80.2148438,116.859375 78.3203125,117.347656 77.2265625,118.324219 C76.1328125,119.300781 75.5859375,120.941406 75.5859375,123.246094 C75.5859375,125.355469 76.1328125,126.957031 77.2265625,128.050781 C78.3203125,129.144531 79.9023438,129.691406 81.9726562,129.691406 L81.9726562,129.691406 L82.9101562,129.691406 L82.9101562,181.429688 L79.453125,181.429688 C76.796875,181.429688 74.9121094,181.9375 73.7988281,182.953125 C72.6855469,183.96875 72.1289062,185.628906 72.1289062,187.933594 C72.1289062,190.238281 72.6757812,191.869141 73.7695312,192.826172 C74.8632812,193.783203 76.7578125,194.261719 79.453125,194.261719 L79.453125,194.261719 L104.296875,194.261719 Z M110.390625,158.402344 C106.523438,158.402344 103.339844,156.976562 100.839844,154.125 C98.3398438,151.273438 97.0898438,147.621094 97.0898438,143.167969 C97.0898438,138.714844 98.3398438,135.0625 100.839844,132.210938 C103.339844,129.359375 106.523438,127.933594 110.390625,127.933594 C114.296875,127.933594 117.5,129.359375 120,132.210938 C122.5,135.0625 123.75,138.714844 123.75,143.167969 C123.75,147.582031 122.490234,151.224609 119.970703,154.095703 C117.451172,156.966797 114.257812,158.402344 110.390625,158.402344 Z M179.648438,108.714844 C182.773438,108.714844 184.755859,108.236328 185.595703,107.279297 C186.435547,106.322266 186.855469,103.851562 186.855469,99.8671875 C186.855469,95.7265625 186.386719,93.109375 185.449219,92.015625 C184.511719,90.921875 182.617188,90.375 179.765625,90.375 C176.679688,90.375 174.6875,91.0585938 173.789062,92.4257812 C172.890625,93.7929688 172.441406,96.9765625 172.441406,101.976562 C172.441406,104.671875 172.880859,106.46875 173.759766,107.367188 C174.638672,108.265625 176.601562,108.714844 179.648438,108.714844 Z M200.800781,171 C203.457031,171 205.361328,170.492188 206.513672,169.476562 C207.666016,168.460938 208.242188,166.800781 208.242188,164.496094 C208.242188,162.230469 207.675781,160.609375 206.542969,159.632812 C205.410156,158.65625 203.496094,158.167969 200.800781,158.167969 L200.800781,158.167969 L188.203125,158.167969 L188.203125,119.378906 C188.203125,118.597656 187.910156,117.982422 187.324219,117.533203 C186.738281,117.083984 185.898438,116.859375 184.804688,116.859375 L184.804688,116.859375 L167.167969,116.859375 C164.472656,116.859375 162.578125,117.347656 161.484375,118.324219 C160.390625,119.300781 159.84375,120.941406 159.84375,123.246094 C159.84375,125.550781 160.410156,127.201172 161.542969,128.197266 C162.675781,129.193359 164.550781,129.691406 167.167969,129.691406 L167.167969,129.691406 L173.789062,129.691406 L173.789062,158.167969 L161.191406,158.167969 C158.457031,158.167969 156.533203,158.65625 155.419922,159.632812 C154.306641,160.609375 153.75,162.230469 153.75,164.496094 C153.75,166.800781 154.326172,168.460938 155.478516,169.476562 C156.630859,170.492188 158.535156,171 161.191406,171 L161.191406,171 L200.800781,171 Z M252.011719,171.820312 C255.449219,171.820312 258.232422,170.863281 260.361328,168.949219 C262.490234,167.035156 263.554688,164.515625 263.554688,161.390625 C263.554688,158.265625 262.5,155.746094 260.390625,153.832031 C258.28125,151.917969 255.488281,150.960938 252.011719,150.960938 C248.613281,150.960938 245.849609,151.9375 243.720703,153.890625 C241.591797,155.84375 240.527344,158.34375 240.527344,161.390625 C240.527344,164.515625 241.582031,167.035156 243.691406,168.949219 C245.800781,170.863281 248.574219,171.820312 252.011719,171.820312 Z M337.382812,171 C339.21875,171 340.478516,170.697266 341.162109,170.091797 C341.845703,169.486328 342.1875,168.382812 342.1875,166.78125 C342.1875,165.375 341.826172,164.349609 341.103516,163.705078 C340.380859,163.060547 339.257812,162.738281 337.734375,162.738281 L337.734375,162.738281 L318.28125,162.738281 L318.28125,138.480469 C322.382812,133.792969 326.123047,130.365234 329.501953,128.197266 C332.880859,126.029297 336.09375,124.945312 339.140625,124.945312 C340.820312,124.945312 342.724609,125.541016 344.853516,126.732422 C346.982422,127.923828 348.496094,128.519531 349.394531,128.519531 C350.683594,128.519531 351.865234,127.962891 352.939453,126.849609 C354.013672,125.736328 354.550781,124.457031 354.550781,123.011719 C354.550781,120.785156 353.476562,118.96875 351.328125,117.5625 C349.179688,116.15625 346.367188,115.453125 342.890625,115.453125 C338.242188,115.453125 333.90625,116.585938 329.882812,118.851562 C325.859375,121.117188 321.992188,124.574219 318.28125,129.222656 L318.28125,129.222656 L318.28125,119.261719 C318.28125,118.480469 318.007812,117.884766 317.460938,117.474609 C316.914062,117.064453 316.113281,116.859375 315.058594,116.859375 L315.058594,116.859375 L301.699219,116.859375 C300.136719,116.859375 298.974609,117.201172 298.212891,117.884766 C297.451172,118.568359 297.070312,119.59375 297.070312,120.960938 C297.070312,122.5625 297.539062,123.666016 298.476562,124.271484 C299.414062,124.876953 301.777344,125.179688 305.566406,125.179688 L305.566406,125.179688 L309.550781,125.179688 L309.550781,162.738281 L299.355469,162.738281 C297.675781,162.738281 296.435547,163.070312 295.634766,163.734375 C294.833984,164.398438 294.433594,165.414062 294.433594,166.78125 C294.433594,168.1875 294.824219,169.242188 295.605469,169.945312 C296.386719,170.648438 297.539062,171 299.0625,171 L299.0625,171 L337.382812,171 Z M395.449219,172.464844 C399.550781,172.464844 403.681641,171.957031 407.841797,170.941406 C412.001953,169.925781 416.035156,168.460938 419.941406,166.546875 C421.738281,165.648438 423.046875,164.730469 423.867188,163.792969 C424.6875,162.855469 425.097656,161.820312 425.097656,160.6875 C425.097656,159.59375 424.707031,158.675781 423.925781,157.933594 C423.144531,157.191406 422.167969,156.820312 420.996094,156.820312 C419.863281,156.820312 416.601562,158.041016 411.210938,160.482422 C405.820312,162.923828 400.839844,164.144531 396.269531,164.144531 C390.214844,164.144531 385.439453,162.611328 381.943359,159.544922 C378.447266,156.478516 376.542969,152.132812 376.230469,146.507812 L376.230469,146.507812 L416.484375,146.507812 C420.546875,146.507812 423.037109,146.136719 423.955078,145.394531 C424.873047,144.652344 425.332031,143.1875 425.332031,141 C425.332031,133.890625 422.617188,127.835938 417.1875,122.835938 C411.757812,117.835938 404.921875,115.335938 396.679688,115.335938 C387.578125,115.335938 380.195312,118.011719 374.53125,123.363281 C368.867188,128.714844 366.035156,135.707031 366.035156,144.339844 C366.035156,152.816406 368.710938,159.623047 374.0625,164.759766 C379.414062,169.896484 386.542969,172.464844 395.449219,172.464844 Z M414.667969,138.832031 L376.523438,138.832031 C377.65625,133.988281 380,130.199219 383.554688,127.464844 C387.109375,124.730469 391.484375,123.363281 396.679688,123.363281 C401.484375,123.363281 405.537109,124.779297 408.837891,127.611328 C412.138672,130.443359 414.082031,134.183594 414.667969,138.832031 L414.667969,138.832031 Z M470.449219,172.347656 C477.480469,172.347656 483.066406,170.765625 487.207031,167.601562 C491.347656,164.4375 493.417969,160.21875 493.417969,154.945312 C493.417969,149.4375 491.542969,145.365234 487.792969,142.728516 C484.042969,140.091797 478.105469,138.675781 469.980469,138.480469 C462.363281,138.324219 457.402344,137.71875 455.097656,136.664062 C452.792969,135.609375 451.640625,133.851562 451.640625,131.390625 C451.640625,128.890625 452.763672,126.830078 455.009766,125.208984 C457.255859,123.587891 460.214844,122.777344 463.886719,122.777344 C467.050781,122.777344 469.804688,123.197266 472.148438,124.037109 C474.492188,124.876953 476.699219,126.253906 478.769531,128.167969 C479.550781,128.871094 480.546875,129.90625 481.757812,131.273438 C483.476562,133.265625 484.921875,134.261719 486.09375,134.261719 C487.460938,134.261719 488.457031,133.802734 489.082031,132.884766 C489.707031,131.966797 490.019531,130.472656 490.019531,128.402344 L490.019531,128.402344 L490.019531,121.546875 C490.019531,119.59375 489.697266,118.128906 489.052734,117.152344 C488.408203,116.175781 487.421875,115.6875 486.09375,115.6875 C484.921875,115.6875 483.730469,116.068359 482.519531,116.830078 C481.308594,117.591797 480.488281,117.972656 480.058594,117.972656 C479.902344,117.972656 478.261719,117.552734 475.136719,116.712891 C472.011719,115.873047 468.945312,115.453125 465.9375,115.453125 C458.554688,115.453125 452.822266,116.878906 448.740234,119.730469 C444.658203,122.582031 442.617188,126.585938 442.617188,131.742188 C442.617188,137.015625 444.707031,141.039062 448.886719,143.8125 C453.066406,146.585938 459.140625,147.972656 467.109375,147.972656 L467.109375,147.972656 L470.332031,147.972656 C475.214844,147.972656 478.662109,148.558594 480.673828,149.730469 C482.685547,150.902344 483.691406,152.875 483.691406,155.648438 C483.691406,158.382812 482.441406,160.589844 479.941406,162.269531 C477.441406,163.949219 474.121094,164.789062 469.980469,164.789062 C466.113281,164.789062 462.578125,164.154297 459.375,162.884766 C456.171875,161.615234 453.75,159.925781 452.109375,157.816406 C451.601562,157.152344 451.035156,156.15625 450.410156,154.828125 C449.472656,152.640625 448.203125,151.546875 446.601562,151.546875 C445.15625,151.546875 444.111328,151.917969 443.466797,152.660156 C442.822266,153.402344 442.5,154.632812 442.5,156.351562 L442.5,156.351562 L442.5,166.78125 C442.5,168.578125 442.861328,169.955078 443.583984,170.912109 C444.306641,171.869141 445.351562,172.347656 446.71875,172.347656 C447.382812,172.347656 448.203125,172.123047 449.179688,171.673828 C450.15625,171.224609 451.328125,170.550781 452.695312,169.652344 C456.835938,170.628906 460.273438,171.322266 463.007812,171.732422 C465.742188,172.142578 468.222656,172.347656 470.449219,172.347656 Z M544.511719,172.054688 C547.207031,172.054688 550.087891,171.703125 553.154297,171 C556.220703,170.296875 559.667969,169.183594 563.496094,167.660156 C565.800781,166.761719 567.431641,165.833984 568.388672,164.876953 C569.345703,163.919922 569.824219,162.796875 569.824219,161.507812 C569.824219,160.375 569.443359,159.417969 568.681641,158.636719 C567.919922,157.855469 566.992188,157.464844 565.898438,157.464844 C564.726562,157.464844 561.660156,158.5 556.699219,160.570312 C551.738281,162.640625 547.480469,163.675781 543.925781,163.675781 C539.902344,163.675781 537.060547,162.660156 535.400391,160.628906 C533.740234,158.597656 532.910156,154.378906 532.910156,147.972656 L532.910156,147.972656 L532.910156,128.402344 L556.640625,128.402344 C558.28125,128.402344 559.511719,128.060547 560.332031,127.376953 C561.152344,126.693359 561.5625,125.667969 561.5625,124.300781 C561.5625,122.855469 561.123047,121.800781 560.244141,121.136719 C559.365234,120.472656 557.96875,120.140625 556.054688,120.140625 L556.054688,120.140625 L532.910156,120.140625 L532.910156,108.246094 C532.910156,104.769531 532.578125,102.542969 531.914062,101.566406 C531.25,100.589844 530.058594,100.101562 528.339844,100.101562 C526.816406,100.101562 525.693359,100.501953 524.970703,101.302734 C524.248047,102.103516 523.886719,103.34375 523.886719,105.023438 L523.886719,105.023438 L523.886719,120.140625 L517.265625,120.140625 C513.945312,120.140625 511.777344,120.433594 510.761719,121.019531 C509.746094,121.605469 509.238281,122.699219 509.238281,124.300781 C509.238281,125.746094 509.609375,126.791016 510.351562,127.435547 C511.09375,128.080078 512.285156,128.402344 513.925781,128.402344 L513.925781,128.402344 L523.886719,128.402344 L523.886719,149.789062 C523.886719,153.695312 524.052734,156.585938 524.384766,158.460938 C524.716797,160.335938 525.273438,161.957031 526.054688,163.324219 C527.578125,166.214844 529.892578,168.392578 532.998047,169.857422 C536.103516,171.322266 539.941406,172.054688 544.511719,172.054688 Z" id="apiapi.rest" fill="#B80021" fill-rule="nonzero"></path>
    </g>
</svg>